<svg width="1920" height="887" viewBox="0 0 1920 887" fill="none" xmlns="http://www.w3.org/2000/svg">
<path fill-rule="evenodd" clip-rule="evenodd" d="M1192.78 64.8891C1179.92 47.2429 1149.24 37.7649 1107.03 52.0428C1105.75 51.0238 1104.48 50.0077 1103.23 48.9968C1079.86 30.2441 1058.74 13.2861 1022.52 13.2861C1003.45 13.2861 972.153 22.8668 955.64 28.4338C936.736 18.8496 914.208 13.2861 890.023 13.2861C852.684 13.2861 819.295 26.5473 797.094 47.3918C792.239 46.9203 788.335 45.0538 782.66 42.3399C780.82 41.4597 778.793 40.4905 776.487 39.4508C747.59 26.4233 706.978 30.5789 674.504 44.1051C628.65 17.131 579.394 9.82236 543.944 7.76926C477.994 3.94967 427.802 11.1644 366.874 45.8373C366.874 45.8373 342.592 31.5353 319.111 45.8373C291.136 36.3011 245.709 28.5646 204.974 39.011C160.987 50.2914 146.32 67.3295 138.363 76.5721C134.932 80.5574 132.749 83.0934 130.001 83.0934C70.6461 76.0449 24.8793 88.5194 -0.000976562 117.688H783.736C783.736 117.688 783.736 117.687 783.736 117.687H1206.94L1920 117.687C1895.12 88.519 1849.35 76.045 1790 83.0934C1787.38 83.0934 1785.42 80.4284 1782.42 76.3495C1774.98 66.239 1761.16 47.4415 1715.03 39.011C1671.59 31.0738 1628.86 36.3011 1600.89 45.8374C1577.41 31.5353 1553.13 45.8374 1553.13 45.8374C1503.43 9.04246 1446.76 -1.31877 1390.21 0.130119C1354.23 1.05194 1277.5 10.2424 1230.5 53.7461C1216.65 56.7059 1204 60.4857 1192.78 64.8891Z" fill="#E2F0FF"/>
<path fill-rule="evenodd" clip-rule="evenodd" d="M727.224 820.992C740.084 838.702 770.756 848.214 812.974 833.884C814.249 834.907 815.515 835.927 816.775 836.942C840.136 855.763 861.261 872.783 897.477 872.783C916.549 872.783 947.847 863.167 964.36 857.58C983.264 867.199 1005.79 872.783 1029.98 872.783C1067.32 872.783 1100.71 859.473 1122.91 838.552C1127.76 839.026 1131.66 840.899 1137.34 843.623C1139.18 844.506 1141.21 845.479 1143.51 846.522C1172.41 859.597 1213.02 855.427 1245.49 841.852C1291.35 868.925 1340.61 876.261 1376.05 878.321C1442.01 882.155 1492.2 874.914 1553.13 840.114C1553.13 840.114 1577.41 854.468 1600.89 840.114C1628.86 849.685 1674.29 857.45 1715.03 846.965C1759.01 835.644 1773.68 818.543 1781.64 809.267C1785.07 805.267 1787.25 802.722 1790 802.722C1849.35 809.796 1895.12 797.276 1920 768.001L1295.7 768.001C1295.7 768 1295.7 768 1295.7 768L713.057 768C713.058 768 713.058 768.001 713.058 768.001L0.000132397 768.001C24.8806 797.276 70.6471 809.796 130.002 802.722C132.624 802.722 134.584 805.396 137.583 809.49C145.019 819.638 158.844 838.504 204.974 846.965C248.405 854.931 291.137 849.685 319.112 840.114C342.592 854.468 366.874 840.114 366.874 840.114C416.565 877.043 473.238 887.443 529.789 885.988C565.769 885.063 642.501 875.839 689.499 832.176C703.352 829.206 716.002 825.412 727.224 820.992Z" fill="#E2F0FF"/>
<rect y="114" width="1920" height="654" fill="#E2F0FF"/>
</svg>
