<svg width="31" height="31" viewBox="0 0 31 31" fill="none" xmlns="http://www.w3.org/2000/svg">
<g clip-path="url(#clip0_0_435)">
<mask id="mask0_0_435" style="mask-type:luminance" maskUnits="userSpaceOnUse" x="0" y="0" width="31" height="31">
<path d="M0 8.96454e-05H30.9999V31H0V8.96454e-05Z" fill="white"/>
</mask>
<g mask="url(#mask0_0_435)">
<path d="M28.6179 15.5C28.6179 17.1487 29.5039 18.4324 30.2657 20.2275C28.267 26.476 22.4115 31 15.5002 31C8.58879 31 2.73332 26.476 0.734615 20.2275C0.257567 18.7369 0.000244141 17.1487 0.000244141 15.5C0.000244141 14.0033 0.212762 12.5557 0.608738 11.1867C2.47654 4.72515 8.43682 8.96454e-05 15.5002 8.96454e-05C22.5635 8.96454e-05 28.5238 4.72515 30.3916 11.1867C29.7454 12.7679 28.6179 14.0033 28.6179 15.5Z" fill="#4EB77D"/>
<path d="M9.93346 23.3497L7.99233 26.7106C7.61089 27.3712 6.65728 27.3712 6.27583 26.7106L4.33471 23.3497C3.95326 22.6885 4.43037 21.8627 5.19326 21.8627H5.91134V14.8126L7.04478 14.3718L8.35682 14.8332V21.8627H9.07491C9.8384 21.8627 10.3149 22.6885 9.93346 23.3497Z" fill="#FFF24D"/>
<path d="M26.6651 23.3497L24.724 26.7106C24.3425 27.3712 23.3889 27.3712 23.0075 26.7106L21.0663 23.3497C20.6849 22.6885 21.162 21.8627 21.9249 21.8627H22.643V14.8126L23.7764 14.3718L25.0885 14.8332V21.8627H25.8065C26.57 21.8627 27.0465 22.6885 26.6651 23.3497Z" fill="#FFF24D"/>
<path d="M24.4781 26.996C24.0271 27.3514 23.3223 27.2563 23.0075 26.7108L21.0663 23.3499C20.6849 22.6887 21.162 21.8628 21.9249 21.8628H22.643V14.8128L23.7764 14.372L24.4194 14.5984L23.8678 14.8128V21.8628H23.1497C22.3869 21.8628 21.9097 22.6887 22.2912 23.3499L24.2323 26.7108C24.2989 26.8265 24.3831 26.9215 24.4781 26.996Z" fill="#FFD150"/>
<path d="M7.74657 26.9957C7.2955 27.3512 6.59074 27.2561 6.27589 26.7106L4.33477 23.3496C3.95332 22.6885 4.43043 21.8626 5.19332 21.8626H5.9114V14.8125L7.04484 14.3718L7.68784 14.5982L7.13626 14.8125V21.8626H6.41818C5.65529 21.8626 5.17818 22.6885 5.55963 23.3496L7.50075 26.7106C7.56735 26.8262 7.65151 26.9213 7.74657 26.9957Z" fill="#FFD150"/>
<path d="M18.2992 26.6717L16.3581 30.0327C15.9767 30.6932 15.0231 30.6932 14.6416 30.0327L12.7005 26.6717C12.319 26.0105 12.7962 25.1847 13.559 25.1847H14.2771V18.1346L15.4106 17.6938L16.7226 18.1552V25.1847H17.4407C18.2042 25.1847 18.6807 26.0105 18.2992 26.6717Z" fill="#FFF24D"/>
<path d="M16.1123 30.318C15.6612 30.6734 14.9565 30.5784 14.6416 30.0328L12.7005 26.6719C12.319 26.0107 12.7962 25.1849 13.559 25.1849H14.2771V18.1348L15.4106 17.694L16.0536 17.9205L15.502 18.1348V25.1849H14.7839C14.021 25.1849 13.5439 26.0107 13.9253 26.6719L15.8665 30.0328C15.9331 30.1485 16.0172 30.2435 16.1123 30.318Z" fill="#FFD150"/>
<path d="M30.9999 15.5002C30.9999 17.1488 30.7426 18.737 30.2655 20.2276C29.7726 20.7586 29.0739 21.0923 28.3026 21.0856C27.8612 21.082 27.4452 20.9706 27.0795 20.7774C26.5237 20.4832 25.8613 20.4777 25.3061 20.7732C24.9319 20.973 24.5051 21.0856 24.0516 21.0856C23.5981 21.0856 23.1706 20.973 22.7964 20.7732C22.5246 20.6283 22.2214 20.5525 21.9134 20.5525C21.6054 20.5525 21.3021 20.6283 21.0303 20.7732C20.6561 20.973 20.2293 21.0856 19.7758 21.0856C19.3223 21.0856 18.8948 20.973 18.5206 20.7732C18.2488 20.6283 17.9456 20.5525 17.6376 20.5525C17.3295 20.5525 17.0263 20.6283 16.7545 20.7732C16.3809 20.973 15.9535 21.0856 15.5 21.0856C15.0465 21.0856 14.619 20.973 14.2454 20.7732C13.9736 20.6283 13.6704 20.5525 13.3624 20.5525C13.0543 20.5525 12.7511 20.6283 12.4793 20.7732C12.1051 20.973 11.6776 21.0856 11.2241 21.0856C10.7707 21.0856 10.3438 20.973 9.96962 20.7732C9.69783 20.6283 9.39455 20.5525 9.08655 20.5525C8.77854 20.5525 8.47527 20.6283 8.20347 20.7732C7.82929 20.973 7.40183 21.0856 6.94834 21.0856C6.49484 21.0856 6.06799 20.973 5.69381 20.7732C5.1386 20.4777 4.47622 20.4832 3.9204 20.7774C3.54333 20.9767 3.12385 21.0824 2.69735 21.0856C1.92599 21.0923 1.22728 20.7586 0.734432 20.2276C0.279726 19.7378 0 19.0809 0 18.3689V12.9003C0 12.2567 0.22826 11.6579 0.608494 11.1868C1.10377 10.5717 1.85757 10.1757 2.69735 10.183C3.13874 10.1872 3.5547 10.298 3.9204 10.4917C4.47622 10.7854 5.1386 10.7914 5.69381 10.4954C6.07995 10.2897 6.51084 10.1824 6.94834 10.183C7.40183 10.183 7.82929 10.2962 8.20347 10.4954C8.47527 10.6403 8.77854 10.7161 9.08655 10.7161C9.39455 10.7161 9.69783 10.6403 9.96962 10.4954C10.3558 10.2897 10.7866 10.1824 11.2241 10.183C11.6776 10.183 12.1051 10.2962 12.4793 10.4954C12.7511 10.6403 13.0543 10.7161 13.3624 10.7161C13.6704 10.7161 13.9736 10.6403 14.2454 10.4954C14.6315 10.2896 15.0624 10.1823 15.5 10.183C15.9535 10.183 16.3809 10.2962 16.7545 10.4954C17.0263 10.6403 17.3295 10.7161 17.6376 10.7161C17.9456 10.7161 18.2488 10.6403 18.5206 10.4954C18.907 10.2897 19.3381 10.1824 19.7758 10.183C20.2293 10.183 20.6561 10.2962 21.0303 10.4954C21.3021 10.6403 21.6054 10.7161 21.9134 10.7161C22.2214 10.7161 22.5246 10.6403 22.7964 10.4954C23.1828 10.2897 23.6139 10.1824 24.0516 10.183C24.5051 10.183 24.9319 10.2962 25.3061 10.4954C25.8613 10.7914 26.5237 10.7854 27.0795 10.4917C27.4452 10.298 27.8612 10.1872 28.3026 10.183C29.1423 10.1757 29.8961 10.5717 30.3914 11.1868C30.7874 12.5558 30.9999 14.0034 30.9999 15.5002Z" fill="#EFF4F4"/>
<path d="M25.0884 2.12184V14.4104L23.7764 13.949L22.6429 14.3898V2.12184C22.6429 1.44675 23.1903 0.899405 23.866 0.899405C24.2038 0.899405 24.509 1.03624 24.7306 1.25724C24.9516 1.47884 25.0884 1.78399 25.0884 2.12184Z" fill="#FFF24D"/>
<path d="M24.4781 1.06417C24.113 1.27548 23.8678 1.67024 23.8678 2.12192V13.9812L23.7764 13.9491L22.6429 14.3899V2.12192C22.6429 1.44683 23.1903 0.899484 23.866 0.899484C24.0894 0.899484 24.2983 0.959425 24.4781 1.06417Z" fill="#FFD150"/>
<path d="M2.57747 12.8559V18.4129C2.57747 19.4216 3.13632 20.3002 3.96157 20.7543C3.57952 20.9656 3.13995 21.0854 2.67253 21.0854C1.1964 21.0854 0 19.889 0 18.4129V12.8559C0 11.3798 1.1964 10.1828 2.67253 10.1828C3.13995 10.1828 3.57952 10.3027 3.96157 10.514C3.13632 10.9687 2.57747 11.8472 2.57747 12.8559Z" fill="#E1E5E5"/>
<path d="M8.35692 2.12184V14.4104L7.04487 13.949L5.91144 14.3898V2.12184C5.91144 1.44675 6.45878 0.899405 7.13448 0.899405C7.47233 0.899405 7.77749 1.03624 7.99909 1.25724C8.22008 1.47884 8.35692 1.78399 8.35692 2.12184Z" fill="#FFF24D"/>
<path d="M7.74661 1.06393C7.38151 1.27523 7.1363 1.67 7.1363 2.12168V13.981L7.04487 13.9489L5.91144 14.3896V2.12168C5.91144 1.44658 6.45878 0.89924 7.13448 0.89924C7.3579 0.89924 7.56678 0.959181 7.74661 1.06393Z" fill="#FFD150"/>
<path d="M16.7227 4.23584V14.533L15.4107 14.0716L14.2772 14.5124V4.23584C14.2772 3.56075 14.8246 3.0134 15.5003 3.0134C15.8381 3.0134 16.1433 3.15024 16.3649 3.37124C16.5859 3.59284 16.7227 3.89799 16.7227 4.23584Z" fill="#FFF24D"/>
<path d="M16.1124 3.17828C15.7473 3.38959 15.5021 3.78435 15.5021 4.23603V14.0718L14.2772 14.4805V4.23603C14.2772 3.56093 14.8246 3.01359 15.5003 3.01359C15.7237 3.01359 15.9326 3.07353 16.1124 3.17828Z" fill="#FFD150"/>
<path d="M26.1898 15.5715C26.1193 15.5716 26.0498 15.5553 25.9867 15.5238C25.9237 15.4924 25.8688 15.4467 25.8265 15.3903C25.4025 14.8263 24.7556 14.5028 24.0516 14.5028C23.3472 14.5028 22.7002 14.8263 22.2768 15.3901C22.2345 15.4464 22.1797 15.4921 22.1167 15.5236C22.0537 15.5551 21.9842 15.5715 21.9138 15.5715H21.9137C21.8432 15.5715 21.7738 15.5551 21.7108 15.5237C21.6478 15.4922 21.593 15.4466 21.5507 15.3903C21.1267 14.8263 20.4797 14.5028 19.7758 14.5028C19.0713 14.5028 18.4244 14.8262 18.001 15.3901C17.9587 15.4464 17.9039 15.4921 17.8409 15.5236C17.7778 15.5551 17.7084 15.5715 17.6379 15.5715C17.5675 15.5715 17.498 15.5551 17.435 15.5236C17.3719 15.4921 17.3171 15.4464 17.2748 15.3901C16.8513 14.8263 16.2044 14.5028 15.4999 14.5028C14.7955 14.5028 14.1486 14.8263 13.7251 15.3901C13.6828 15.4464 13.628 15.4921 13.565 15.5236C13.502 15.5551 13.4325 15.5715 13.362 15.5715C13.2916 15.5715 13.2221 15.5551 13.1591 15.5236C13.0961 15.4921 13.0412 15.4464 12.9989 15.3901C12.5755 14.8262 11.9287 14.5028 11.2241 14.5028C10.5202 14.5028 9.87328 14.8263 9.44927 15.3903C9.40695 15.4466 9.35213 15.4922 9.28914 15.5237C9.22614 15.5551 9.1567 15.5715 9.08629 15.5715H9.08617C9.01574 15.5715 8.94628 15.5551 8.88329 15.5236C8.82029 15.4921 8.76548 15.4464 8.7232 15.3901C8.29967 14.8263 7.65279 14.5028 6.94833 14.5028C6.24435 14.5028 5.59747 14.8263 5.17346 15.3903C5.10084 15.4859 4.99331 15.5489 4.8744 15.5654C4.75549 15.5819 4.63487 15.5507 4.53891 15.4786C4.44295 15.4064 4.37946 15.2992 4.36232 15.1804C4.34518 15.0616 4.37579 14.9408 4.44745 14.8445C5.04468 14.0502 5.95615 13.5946 6.94833 13.5946C7.75705 13.5946 8.51177 13.897 9.08641 14.4384C9.6613 13.897 10.416 13.5946 11.2241 13.5946C12.0328 13.5946 12.7876 13.8969 13.362 14.4383C13.9366 13.8969 14.6913 13.5946 15.4999 13.5946C16.3086 13.5946 17.0633 13.8969 17.6379 14.4383C18.2124 13.8969 18.9672 13.5946 19.7758 13.5946C20.5839 13.5946 21.3386 13.897 21.9135 14.4384C22.4881 13.897 23.2429 13.5946 24.0516 13.5946C25.0437 13.5946 25.9553 14.0502 26.5524 14.8445C26.6031 14.9119 26.6341 14.9921 26.6417 15.0761C26.6494 15.1601 26.6335 15.2446 26.5959 15.3201C26.5582 15.3956 26.5003 15.4591 26.4286 15.5035C26.3569 15.5479 26.2742 15.5715 26.1898 15.5715Z" fill="#E1E5E5"/>
</g>
</g>
<defs>
<clipPath id="clip0_0_435">
<rect width="31" height="31" fill="white"/>
</clipPath>
</defs>
</svg>
