<svg width="389" height="172" viewBox="0 0 389 172" fill="none" xmlns="http://www.w3.org/2000/svg">
<path d="M170.676 160.297L170.47 160.177L170.247 160.263C164.862 162.331 157.07 165.143 149.073 167.437C141.065 169.735 132.897 171.5 126.743 171.5C103.288 171.5 89.6252 159.008 74.3451 145.038C73.5313 144.293 72.7128 143.545 71.888 142.794L71.6597 142.586L71.3717 142.697C48.6875 151.436 31.2568 148.113 21.2636 139.444C11.2762 130.78 8.59744 116.684 15.5693 103.549L15.7719 103.167L15.4235 102.912C-14.438 80.9969 3.00295 32.0173 45.867 37.0503L46.14 37.0823L46.3133 36.8691C57.6667 22.9018 66.8048 14.5058 77.6676 9.25006C88.5336 3.99267 101.174 1.85309 119.588 0.500021C132.781 0.501808 148.83 2.43019 163.82 7.30912C178.821 12.1919 192.716 20.0143 201.652 31.7698L201.987 32.2103L202.392 31.8327C204.666 29.7092 208.858 27.529 213.199 26.9782C217.521 26.4299 221.906 27.498 224.748 31.7452L224.984 32.0976L225.37 31.9226C238.811 25.8331 259.376 22.4856 280.279 27.5627C295.828 31.3393 303.696 38.3595 308.231 44.4062C310.165 46.9849 311.496 49.3893 312.569 51.3289C312.759 51.6723 312.941 52.0011 313.117 52.3137C313.695 53.3417 314.222 54.223 314.757 54.8474C315.29 55.4699 315.908 55.9284 316.678 55.9284L316.717 55.9284L316.756 55.9223C336.436 52.8162 352.951 55.6399 365.206 63.7309C377.452 71.8168 385.513 85.2092 388.204 103.388C389.532 112.359 386.319 121.088 380.101 128.863C373.881 136.641 364.674 143.433 354.097 148.491C332.921 158.619 306.427 161.723 287.665 152.088C286.165 151.318 284.847 150.599 283.645 149.945L283.568 149.903C282.348 149.238 281.243 148.637 280.197 148.12C278.1 147.083 276.214 146.369 274.032 146.127L273.783 146.1L273.612 146.283C259.209 161.688 237.535 171.5 213.282 171.5C197.574 171.5 182.947 167.384 170.676 160.297Z" fill="white" stroke="#AAC7E5"/>
</svg>
