<svg width="389" height="185" viewBox="0 0 389 185" fill="none" xmlns="http://www.w3.org/2000/svg">
<path d="M218.31 12.5468L218.528 12.6821L218.765 12.5842C224.15 10.3599 231.941 7.3356 239.936 4.86818C247.944 2.3969 256.108 0.5 262.257 0.5C285.701 0.5 299.359 13.9313 314.645 28.9636C315.458 29.7627 316.275 30.5664 317.099 31.3728L317.335 31.6039L317.64 31.4774C340.315 22.0818 357.732 25.6542 367.723 34.9759C377.721 44.3041 380.41 59.499 373.424 73.6554L373.245 74.0184L373.563 74.2691C388.525 86.0798 391.629 105.155 385.622 120.625C379.623 136.076 364.548 147.891 343.137 145.187L342.85 145.151L342.676 145.382C331.32 160.408 322.181 169.439 311.319 175.091C300.457 180.744 287.822 183.045 269.41 184.5C256.221 184.498 240.177 182.424 225.191 177.178C210.195 171.928 196.298 163.516 187.358 150.866L187.015 150.38L186.595 150.802C184.319 153.088 180.129 155.43 175.796 156.021C171.492 156.608 167.109 155.47 164.261 150.89L164.023 150.507L163.617 150.705C150.18 157.253 129.624 160.852 108.729 155.393C93.1884 151.333 85.3188 143.785 80.7791 137.274C78.8435 134.498 77.5114 131.909 76.4379 129.823C76.2479 129.454 76.066 129.1 75.8902 128.764C75.3121 127.659 74.7865 126.714 74.2543 126.046C73.7277 125.384 73.1078 124.882 72.3219 124.882H72.2798L72.2383 124.889C52.5661 128.229 36.0592 125.194 23.8083 116.493C11.56 107.795 3.49064 93.3807 0.797095 73.8085C-1.86575 54.4594 13.7219 36.1478 34.9161 25.2451C56.0893 14.3533 82.5704 11.0183 101.322 21.3763C102.822 22.2052 104.141 22.9781 105.344 23.6829L105.418 23.7262C106.638 24.441 107.744 25.0878 108.79 25.6443C110.887 26.7595 112.777 27.5298 114.964 27.79L115.227 27.8213L115.4 27.6216C129.807 11.048 151.477 0.5 175.718 0.5C191.418 0.5 206.041 4.92531 218.31 12.5468Z" fill="white" stroke="#AAC7E5"/>
</svg>
