<svg width="366" height="185" viewBox="0 0 366 185" fill="none" xmlns="http://www.w3.org/2000/svg">
<path d="M160.644 171.19L160.402 171.013L160.131 171.144C155.066 173.604 147.738 176.947 140.218 179.675C132.684 182.407 125.016 184.5 119.249 184.5C97.229 184.5 84.3942 169.665 69.9952 153.023C69.2345 152.143 68.4693 151.259 67.6983 150.372L67.4467 150.082L67.1019 150.25C45.7993 160.626 29.4556 156.683 20.0675 146.387C10.6457 136.054 8.10182 119.195 14.6942 103.493L14.8296 103.17L14.5733 102.932C0.485435 89.8618 -2.45417 68.7163 3.21439 51.5561C8.87809 34.4106 23.0684 21.4028 43.1365 24.3817L43.4559 24.4291L43.6305 24.1576C54.2639 7.61936 65.4004 2.18815 76.8186 2.79485C88.3143 3.40566 100.22 10.1339 112.37 18.2525L112.728 18.4917L113.018 18.1732C121.505 8.84073 136.5 1.82962 151.487 0.669127C166.462 -0.490394 181.316 4.19237 189.676 18.0944L190.035 18.692L190.486 18.16C192.631 15.6278 196.563 13.0505 200.614 12.4008C202.629 12.0774 204.653 12.2343 206.501 13.0885C208.344 13.9407 210.051 15.5059 211.409 18.0707L211.651 18.5276L212.099 18.2707C224.727 11.0376 244.041 7.0645 263.672 13.0924C278.27 17.575 285.673 25.9119 289.953 33.1259C291.777 36.2002 293.032 39.0682 294.042 41.3756C294.221 41.7836 294.392 42.1742 294.557 42.5452C295.101 43.7678 295.593 44.8066 296.09 45.541C296.571 46.2517 297.164 46.8385 297.954 46.8385L298.004 46.8385L298.052 46.8288C316.534 43.1411 332.037 46.4908 343.551 56.1019C355.076 65.7219 362.681 81.6794 365.219 103.357C367.735 124.842 353.014 145.107 333.105 157.145C313.193 169.184 288.321 172.856 270.714 161.424C269.302 160.508 268.061 159.653 266.929 158.873L266.861 158.826C265.713 158.036 264.672 157.32 263.686 156.704C261.713 155.47 259.924 154.611 257.847 154.321L257.553 154.279L257.376 154.518C243.815 172.856 223.438 184.5 200.672 184.5C185.924 184.5 172.182 179.614 160.644 171.19Z" fill="white" stroke="#AAC7E5"/>
</svg>
