<svg width="347" height="132" viewBox="0 0 347 132" fill="none" xmlns="http://www.w3.org/2000/svg">
<path d="M152.248 122.903L152.064 122.811L151.869 122.876C147.065 124.463 140.114 126.621 132.981 128.382C125.838 130.145 118.551 131.5 113.059 131.5C92.1351 131.5 79.9523 121.917 66.33 111.201C65.6028 110.629 64.8714 110.054 64.1344 109.476L63.9233 109.311L63.6688 109.395C43.4285 116.104 27.877 113.548 18.9746 106.904C14.5251 103.584 11.7291 99.2405 10.8059 94.4962C9.88286 89.7532 10.8238 84.569 13.9199 79.5505L14.1797 79.1293L13.7613 78.8652C0.450914 70.4613 -2.25838 56.9514 3.04721 46.0215C8.35985 35.0771 21.7696 26.6161 40.9166 28.5503L41.1613 28.575L41.3303 28.3962C51.4515 17.6838 59.5957 11.2461 69.2797 7.21507C78.9715 3.18081 90.2481 1.5385 106.676 0.500002C118.446 0.501323 132.763 1.98146 146.135 5.72591C159.522 9.47456 171.905 15.4766 179.861 24.4803L180.176 24.8378L180.548 24.539C182.566 22.918 186.301 21.2438 190.179 20.8205C194.051 20.3978 197.949 21.2295 200.458 24.4562L200.687 24.7505L201.034 24.6151C213.023 19.9422 231.371 17.3722 250.021 21.2693C263.894 24.1683 270.902 29.5549 274.931 34.1775C276.651 36.1497 277.833 37.9873 278.79 39.4756C278.96 39.7395 279.123 39.9924 279.28 40.2332C279.796 41.0221 280.272 41.7077 280.757 42.1953C281.247 42.6877 281.806 43.038 282.487 43.038H282.52L282.554 43.0335C300.114 40.6491 314.848 42.8181 325.774 49.0243C336.684 55.2216 343.846 65.472 346.238 79.3727C347.41 86.1852 344.58 92.8386 339.044 98.7944C333.507 104.751 325.303 109.96 315.868 113.842C296.98 121.614 273.341 123.998 256.604 116.603C255.266 116.011 254.089 115.46 253.016 114.957L252.951 114.926C251.862 114.416 250.876 113.954 249.942 113.557C248.07 112.761 246.388 112.213 244.443 112.028L244.221 112.007L244.057 112.158C231.226 123.966 211.898 131.5 190.255 131.5C176.238 131.5 163.19 128.34 152.248 122.903Z" fill="white" stroke="#AAC7E5"/>
</svg>
