<svg width="295" height="112" viewBox="0 0 295 112" fill="none" xmlns="http://www.w3.org/2000/svg">
<path d="M165.534 7.78672L165.718 7.87789L165.913 7.81362C169.996 6.46732 175.903 4.63684 181.965 3.14347C188.036 1.64767 194.224 0.5 198.884 0.5C216.646 0.5 226.984 8.61652 238.567 17.7097C239.184 18.1944 239.805 18.6818 240.431 19.1709L240.642 19.3357L240.896 19.2517C258.089 13.5643 271.282 15.7363 278.824 21.3543C282.594 24.1619 284.959 27.8312 285.74 31.836C286.521 35.8395 285.726 40.2188 283.103 44.4624L282.842 44.8841L283.261 45.1484C294.545 52.2588 296.835 63.6799 292.342 72.918C287.842 82.1711 276.475 89.3386 260.222 87.7001L259.978 87.6755L259.809 87.8539C251.208 96.9395 244.293 102.393 236.074 105.808C227.847 109.226 218.271 110.619 204.308 111.5C194.307 111.499 182.144 110.243 170.784 107.069C159.409 103.89 148.898 98.8023 142.148 91.1783L141.833 90.8218L141.461 91.1196C139.758 92.4855 136.596 93.9011 133.313 94.2588C130.035 94.6159 126.752 93.9117 124.641 91.2024L124.412 90.9088L124.065 91.0438C113.886 95.0036 98.3021 97.1827 82.4615 93.8791C70.682 91.4224 64.739 86.8598 61.3248 82.9508C59.8671 81.2818 58.8652 79.7276 58.0512 78.4649C57.9067 78.2407 57.7681 78.0257 57.634 77.8209C57.1957 77.1519 56.7872 76.564 56.3685 76.1441C55.9451 75.7194 55.4525 75.4071 54.8457 75.4071H54.812L54.7786 75.4116C39.86 77.4334 27.352 75.5929 18.0822 70.3376C8.82798 65.091 2.75122 56.4139 0.721592 44.6404C-0.269405 38.8919 2.12143 33.2695 6.81873 28.2264C11.5164 23.1829 18.4806 18.7682 26.4953 15.4769C42.5421 8.88702 62.616 6.87046 76.8193 13.1339C77.9566 13.6354 78.9563 14.103 79.8686 14.5297L79.924 14.5557C80.8491 14.9883 81.689 15.3806 82.484 15.7182C84.0792 16.3955 85.5176 16.8634 87.181 17.0214L87.4025 17.0425L87.5665 16.8919C98.46 6.88718 114.873 0.5 133.256 0.5C145.161 0.5 156.243 3.1789 165.534 7.78672Z" fill="white" stroke="#AAC7E5"/>
</svg>
