<svg width="27" height="28" viewBox="0 0 27 28" fill="none" xmlns="http://www.w3.org/2000/svg">
<g clip-path="url(#clip0_0_463)">
<path d="M20.6903 3.01298L19.8998 6.87392C19.5818 8.42595 18.7455 9.8254 17.5452 10.8152L15.3805 12.6024L14.291 13.0101L13.4509 14.1949L10.8443 16.3474L9.89316 16.5307L8.92844 17.9284L8.64262 18.1647C6.78215 19.7009 4.19394 19.5401 2.52332 17.9913L2.41891 17.0124L1.53139 16.7127C0.429765 14.6795 0.84373 12.0014 2.72424 10.4505L2.91619 10.2919L4.32984 9.73462L4.80935 8.7311L7.66281 6.37899L9.17861 5.68353L9.58814 4.79087L11.6247 3.11196C12.8403 2.11064 14.3622 1.58181 15.911 1.62337L19.7084 1.72673L20.6903 3.01298Z" fill="#FFF5F5"/>
<path d="M20.6904 3.01296L19.8999 6.8739C19.5819 8.42593 18.7455 9.82538 17.5453 10.8152L15.3806 12.6024L14.2911 13.0098L13.451 14.1949L10.8443 16.3474L9.89301 16.5306L8.9285 17.9284L8.64268 18.1647C6.78221 19.7009 4.19401 19.5401 2.52338 17.9913L2.42688 17.0851L20.2031 2.37476L20.6904 3.01296Z" fill="#ECE6F2"/>
<path d="M26.602 13.8979C23.7211 12.1869 21.1131 11.7958 18.6295 12.7022C12.2664 15.0242 9.60159 24.3638 1.18399 19.3665C0.658809 19.0547 0 19.4471 0 20.0784V27.1799C0 27.6329 0.354163 28.0002 0.791014 28.0002H26.2089C26.6458 28.0002 26.9999 27.6329 26.9999 27.1799V14.6097C26.9999 14.4652 26.9631 14.3233 26.8933 14.1983C26.8234 14.0733 26.7229 13.9697 26.602 13.8979Z" fill="#9FFFE2"/>
<path d="M27 14.6099V27.1798C27 27.6326 26.6456 28.0001 26.209 28.0001H13.5V16.245C15.0425 14.8139 16.6588 13.421 18.6295 12.7018C21.1133 11.7956 23.721 12.1867 26.6019 13.8978C26.8481 14.0439 27 14.3156 27 14.6099Z" fill="#9BE69D"/>
<path d="M8.75134 24.6641C9.18821 24.6641 9.54236 24.2968 9.54236 23.8438C9.54236 23.3907 9.18821 23.0234 8.75134 23.0234C8.31448 23.0234 7.96033 23.3907 7.96033 23.8438C7.96033 24.2968 8.31448 24.6641 8.75134 24.6641Z" fill="#9BE69D"/>
<path d="M4.00525 24.6641C4.44211 24.6641 4.79626 24.2968 4.79626 23.8438C4.79626 23.3907 4.44211 23.0234 4.00525 23.0234C3.56838 23.0234 3.21423 23.3907 3.21423 23.8438C3.21423 24.2968 3.56838 24.6641 4.00525 24.6641Z" fill="#9BE69D"/>
<path d="M22.9922 16.4612C22.5554 16.4612 22.2012 16.8285 22.2012 17.2815V23.844C22.2012 24.297 22.5554 24.6643 22.9922 24.6643C23.4291 24.6643 23.7833 24.297 23.7833 23.844V17.2815C23.7833 16.8285 23.4291 16.4612 22.9922 16.4612ZM18.2488 16.4612C17.8119 16.4612 17.4578 16.8285 17.4578 17.2815V23.844C17.4578 24.297 17.8119 24.6643 18.2488 24.6643C18.6856 24.6643 19.0398 24.297 19.0398 23.844V17.2815C19.0398 16.8285 18.6856 16.4612 18.2488 16.4612Z" fill="#E1FFC3"/>
<path d="M13.5 20.5654C13.0631 20.5654 12.709 20.9327 12.709 21.3857V23.8439C12.709 24.297 13.0631 24.6643 13.5 24.6643C13.9369 24.6643 14.291 24.297 14.291 23.8439V21.3857C14.291 20.9327 13.9369 20.5654 13.5 20.5654Z" fill="#9BE69D"/>
<path d="M14.291 21.3857V23.8439C14.291 24.2968 13.9366 24.6643 13.5 24.6643V20.5654C13.9366 20.5654 14.291 20.9329 14.291 21.3857Z" fill="#E1FFC3"/>
<path d="M22.698 0.310156C22.4259 -0.0447661 21.9281 -0.103829 21.5864 0.178359L15.7836 4.96248L9.58825 4.7907L7.66292 6.37883L13.8577 6.55027L10.8945 8.99322L4.80946 8.73094L2.9163 10.2917L9.00158 10.5539L1.53149 16.7126C1.80123 17.2114 2.14901 17.6472 2.52343 17.9912L10.1151 11.732L8.92854 17.9283L10.8444 16.3473L12.0299 10.1532L14.6806 7.96777L13.451 14.1948L15.3806 12.6023L16.6095 6.37741L22.5709 1.46237C22.9126 1.18078 22.9696 0.664531 22.698 0.310156Z" fill="#ECE6F2"/>
<path d="M22.5709 1.46257C22.0045 1.9296 17.2442 5.85452 16.6093 6.37733L15.3806 12.6024L13.451 14.1949L14.6808 7.96819L12.0298 10.1535L10.8443 16.3474L8.92851 17.9284L10.115 11.7323L2.52339 17.9913C2.33711 17.8197 2.1643 17.633 2.00659 17.433L22.698 0.310303C22.9696 0.664678 22.9126 1.18093 22.5709 1.46257Z" fill="#CFCFE6"/>
</g>
<defs>
<clipPath id="clip0_0_463">
<rect width="27" height="28" fill="white"/>
</clipPath>
</defs>
</svg>
