<svg width="32" height="32" viewBox="0 0 32 32" fill="none" xmlns="http://www.w3.org/2000/svg">
<path fill-rule="evenodd" clip-rule="evenodd" d="M24.2759 4.01369V13.4577C24.2897 14.5081 24.1732 15.5563 23.9283 16.5781C19.8014 16.7609 16.5501 20.164 16.5517 24.2989C16.5517 24.4867 16.5573 24.669 16.5738 24.8512C15.195 25.4989 13.7671 26.0363 12.3035 26.4584C12.1959 26.4915 12.08 26.4915 11.9724 26.4584C1.22485 23.2662 2.6786e-05 17.4838 2.6786e-05 13.4577V4.01369C-0.0011598 3.89391 0.0371067 3.77706 0.10891 3.68123C0.180714 3.58539 0.282056 3.51591 0.397268 3.48351L11.9835 0.0207105C12.0844 -0.0069035 12.1915 -0.0069035 12.2924 0.0207105L23.8786 3.48351C24.1159 3.54978 24.2781 3.76738 24.2759 4.01369Z" fill="#14A085"/>
<path fill-rule="evenodd" clip-rule="evenodd" d="M17.9123 21.2785C17.0086 22.3107 14.9997 23.3015 12.1379 24.199C3.34733 21.4376 2.20692 17.0193 2.20692 13.4577V5.24528L12.1379 2.27954L22.069 5.24804V13.4577C22.0861 15.1135 21.734 16.7524 21.0384 18.2548L17.9123 21.2785Z" fill="#F5EFCA"/>
<path fill-rule="evenodd" clip-rule="evenodd" d="M32 24.2989C31.9834 28.4493 28.6957 31.8464 24.5517 31.995C20.4083 32.1435 16.8866 28.9906 16.5738 24.8512C16.5573 24.669 16.5517 24.4867 16.5517 24.2989C16.5501 20.164 19.8014 16.7609 23.9283 16.5781C24.0441 16.567 24.16 16.567 24.2759 16.567C26.3244 16.567 28.2891 17.3816 29.7377 18.8316C31.1862 20.2817 32 22.2483 32 24.2989Z" fill="#4FBA6F"/>
<path fill-rule="evenodd" clip-rule="evenodd" d="M22.069 28.1649C21.9227 28.1649 21.7823 28.1067 21.6789 28.0031L19.472 25.794C19.3715 25.6898 19.3159 25.5503 19.3172 25.4055C19.3184 25.2607 19.3764 25.1222 19.4787 25.0198C19.581 24.9174 19.7194 24.8593 19.8641 24.858C20.0087 24.8568 20.1481 24.9124 20.2521 25.013L22.1032 26.8654L28.3377 21.6657C28.4505 21.576 28.5939 21.5342 28.7371 21.5489C28.8804 21.5637 29.0122 21.634 29.1044 21.7447C29.1966 21.8555 29.2419 21.998 29.2306 22.1417C29.2193 22.2854 29.1523 22.419 29.0439 22.514L22.4232 28.0368C22.3238 28.1197 22.1984 28.1651 22.069 28.1649Z" fill="white"/>
<path fill-rule="evenodd" clip-rule="evenodd" d="M11.8025 20.4225C10.4772 20.3423 9.23225 19.7594 8.32112 18.7927C7.56213 17.9531 7.15194 16.8551 7.17429 15.723C7.19664 14.5909 7.64986 13.51 8.4414 12.7011C8.9277 12.166 9.36806 11.5909 9.75781 10.9818C10.9176 9.14305 11.7247 7.104 12.1379 4.96914C12.5512 7.104 13.3583 9.14305 14.5181 10.9818C14.912 11.5974 15.3576 12.1782 15.8499 12.7182C16.6301 13.5118 17.0833 14.5702 17.1195 15.683C17.1557 16.7958 16.7722 17.8815 16.0453 18.7242C15.512 19.3095 14.8533 19.7664 14.1185 20.0605C13.3837 20.3546 12.5919 20.4784 11.8025 20.4225Z" fill="#2FA8CC"/>
<path fill-rule="evenodd" clip-rule="evenodd" d="M11.9366 18.7695H11.9024C10.9966 18.7154 10.1458 18.3169 9.52388 17.6556C9.11114 17.219 8.86757 16.6493 8.83698 16.049C8.83122 15.9043 8.88237 15.763 8.97945 15.6556C9.07654 15.5482 9.21182 15.4832 9.35626 15.4745C9.5007 15.4659 9.64278 15.5142 9.752 15.6092C9.86122 15.7042 9.92887 15.8383 9.94043 15.9827C9.95655 16.3236 10.0935 16.6477 10.3266 16.8967C10.7559 17.3549 11.3439 17.6314 11.9702 17.6699C12.0427 17.6721 12.114 17.6885 12.1801 17.7182C12.2462 17.7479 12.3059 17.7904 12.3556 17.8432C12.4053 17.896 12.4442 17.9581 12.4699 18.0259C12.4957 18.0937 12.5078 18.166 12.5057 18.2385C12.5035 18.311 12.4871 18.3824 12.4574 18.4486C12.4277 18.5148 12.3853 18.5745 12.3326 18.6242C12.2798 18.674 12.2178 18.7129 12.15 18.7387C12.0823 18.7645 12.0101 18.7766 11.9377 18.7745L11.9366 18.7695Z" fill="white"/>
<path fill-rule="evenodd" clip-rule="evenodd" d="M12.1379 24.7524C12.0818 24.7525 12.026 24.744 11.9724 24.727C2.82761 21.8689 1.6552 17.2027 1.6552 13.4577V5.24528C1.65523 5.12639 1.69357 5.01069 1.76455 4.91537C1.83552 4.82005 1.93532 4.7502 2.04913 4.71619L11.9802 1.74935C12.0833 1.71897 12.1926 1.71897 12.2957 1.74935L22.2268 4.71619C22.3406 4.7502 22.4404 4.82005 22.5113 4.91537C22.5823 5.01069 22.6207 5.12639 22.6207 5.24528V13.4577C22.6207 13.7211 22.6163 13.9901 22.6008 14.2684C22.5969 14.341 22.5788 14.412 22.5474 14.4775C22.5161 14.543 22.4722 14.6017 22.4182 14.6502C22.3642 14.6987 22.3012 14.7361 22.2327 14.7603C22.1643 14.7844 22.0918 14.7948 22.0193 14.7909C21.9469 14.787 21.8759 14.7688 21.8104 14.7374C21.745 14.7061 21.6864 14.6621 21.6379 14.608C21.5895 14.554 21.5521 14.4909 21.528 14.4224C21.5039 14.3539 21.4935 14.2813 21.4974 14.2088C21.5105 13.9586 21.5165 13.7082 21.5156 13.4577V5.65783L12.1379 2.85612L2.75865 5.65783V13.4577C2.75865 16.8028 3.82899 20.9737 12.1379 23.6196C12.5945 23.4746 13.0478 23.3194 13.4974 23.1541C13.5654 23.129 13.6377 23.1175 13.7101 23.1204C13.7825 23.1233 13.8536 23.1404 13.9194 23.1708C13.9852 23.2011 14.0444 23.2442 14.0936 23.2975C14.1428 23.3508 14.181 23.4132 14.2061 23.4813C14.2312 23.5494 14.2426 23.6217 14.2397 23.6942C14.2369 23.7667 14.2198 23.8379 14.1894 23.9038C14.1591 23.9696 14.116 24.0289 14.0628 24.0781C14.0096 24.1273 13.9472 24.1656 13.8792 24.1907C13.3893 24.3713 12.8585 24.5513 12.3029 24.7258C12.2496 24.7432 12.194 24.7521 12.1379 24.7524Z" fill="#BDC3C7"/>
</svg>
