<svg width="35" height="35" viewBox="0 0 35 35" fill="none" xmlns="http://www.w3.org/2000/svg">
<path d="M29.3854 21.875C29.3854 29.1238 23.5091 35 16.2604 35C9.01162 35 3.13538 29.1238 3.13538 21.875C3.13538 13.125 14.8632 0 16.2604 0C17.6576 0 29.3854 13.125 29.3854 21.875Z" fill="#C8EFFE"/>
<path d="M26.1155 11.9963L18.6727 19.4391L15.0626 15.829C14.375 15.1414 13.2603 15.1414 12.5728 15.829L10.4222 17.9796C9.73467 18.6671 9.73467 19.7819 10.4222 20.4693L16.6809 26.728C17.7809 27.828 19.5645 27.828 20.6646 26.728L28.8981 18.4945C28.3342 16.3746 27.3265 14.1449 26.1155 11.9963Z" fill="#99E6FC"/>
<path d="M16.2604 0C16.1327 0 15.9187 0.109648 15.6353 0.315547C19.4389 4.16233 26.5685 13.6443 26.5685 20.4665C26.5685 27.7153 20.6922 33.5915 13.4435 33.5915C11.8956 33.5915 10.4103 33.3236 9.03149 32.8315C11.1045 34.202 13.5892 35 16.2604 35C23.5091 35 29.3854 29.1238 29.3854 21.875C29.3854 13.125 17.6576 0 16.2604 0Z" fill="#99E6FC"/>
<path d="M15.2776 30.5702C11.2364 30.1165 8.01896 26.899 7.56519 22.8578C7.50264 22.3003 7.03842 21.875 6.47732 21.875C5.8251 21.875 5.31802 22.4424 5.39 23.0906C5.95219 28.1524 9.98293 32.1831 15.0448 32.7454C15.6931 32.8174 16.2604 32.3103 16.2604 31.658C16.2604 31.097 15.8352 30.6328 15.2776 30.5702Z" fill="#F2FBFF"/>
<path d="M18.1894 17.5474L15.0626 14.4206C14.375 13.7331 13.2603 13.7331 12.5728 14.4206L10.4222 16.5712C9.73467 17.2588 9.73467 18.3735 10.4222 19.061L16.6809 25.3197C17.7809 26.4197 19.5645 26.4197 20.6646 25.3197L31.3489 14.6353C32.0365 13.9477 32.0365 12.833 31.3489 12.1455L29.1984 9.99492C28.5108 9.30736 27.3961 9.30736 26.7086 9.99492L19.1561 17.5474C18.8891 17.8144 18.4563 17.8144 18.1894 17.5474Z" fill="#97D729"/>
<path d="M31.3489 12.1455L29.1983 9.99492C28.7045 9.50109 27.9904 9.36198 27.3725 9.57745L28.532 10.737C29.2196 11.4246 29.2196 12.5393 28.532 13.2268L17.8476 23.9112C17.3766 24.3836 16.7527 24.6728 16.0878 24.7268L16.6808 25.3197C17.7808 26.4198 19.5644 26.4198 20.6645 25.3197L31.3489 14.6353C32.0365 13.9478 32.0365 12.8331 31.3489 12.1455Z" fill="#8BC727"/>
</svg>
