<svg width="25" height="25" viewBox="0 0 25 25" fill="none" xmlns="http://www.w3.org/2000/svg">
<path d="M13.5417 0.521088V5.73182C13.5417 6.0196 13.3085 6.25291 13.0208 6.25291H0.520848C0.233202 6.25291 0 6.0196 0 5.73182V0.521088C0 0.23331 0.233202 0 0.520848 0H13.0208C13.3085 0 13.5417 0.23331 13.5417 0.521088Z" fill="#FFC107"/>
<path d="M25 9.88889V15.0996C25 15.3874 24.7668 15.6207 24.4792 15.6207H0.520847C0.233201 15.6207 5.02993e-07 15.3874 5.02993e-07 15.0996V9.88889C5.02993e-07 9.60112 0.233201 9.36781 0.520847 9.36781H24.4792C24.7668 9.36786 25 9.60112 25 9.88889Z" fill="#4CAF50"/>
<path d="M19.7917 19.2682V24.4789C19.7917 24.7667 19.5585 25 19.2708 25H0.520847C0.233201 25 0 24.7667 0 24.4789V19.2682C0 18.9804 0.233201 18.7471 0.520847 18.7471H19.2708C19.5585 18.7471 19.7917 18.9804 19.7917 19.2682Z" fill="#2196F3"/>
</svg>
