<svg width="37" height="37" viewBox="0 0 37 37" fill="none" xmlns="http://www.w3.org/2000/svg">
<g clip-path="url(#clip0_0_480)">
<path d="M18.5 37C28.7173 37 37 28.7173 37 18.5C37 8.28273 28.7173 0 18.5 0C8.28273 0 0 8.28273 0 18.5C0 28.7173 8.28273 37 18.5 37Z" fill="#C3E535"/>
<path d="M37 18.5C37 18.4315 36.9997 18.363 36.9989 18.2946L23.0402 4.33594L13.9599 8.05502L19.5594 13.6544L18.285 17.066L8.87503 7.65618L5.78979 19.3248L13.6111 27.1241L10.3319 29.0548L18.2821 36.9988C18.3546 36.9996 18.4272 37.0001 18.5 37.0001C28.7173 37 37 28.7173 37 18.5Z" fill="#A1D316"/>
<path d="M15.443 6.5481H21.557V11.916H15.443V6.5481Z" fill="#414952"/>
<path d="M18.4742 6.5481H21.557V11.916H18.4742V6.5481Z" fill="#23272B"/>
<path d="M18.5 32.5003C24.7986 32.5003 29.9047 27.3942 29.9047 21.0956C29.9047 14.797 24.7986 9.69092 18.5 9.69092C12.2014 9.69092 7.09534 14.797 7.09534 21.0956C7.09534 27.3942 12.2014 32.5003 18.5 32.5003Z" fill="#636978"/>
<path d="M18.5 9.69092C18.4914 9.69092 18.4828 9.69121 18.4742 9.69128V32.5C18.4828 32.5 18.4914 32.5003 18.5 32.5003C24.7986 32.5003 29.9046 27.3943 29.9046 21.0956C29.9046 14.7969 24.7986 9.69092 18.5 9.69092Z" fill="#414952"/>
<path d="M18.5 29.1569C22.9521 29.1569 26.5613 25.5477 26.5613 21.0956C26.5613 16.6434 22.9521 13.0342 18.5 13.0342C14.0478 13.0342 10.4386 16.6434 10.4386 21.0956C10.4386 25.5477 14.0478 29.1569 18.5 29.1569Z" fill="white"/>
<path d="M18.5 13.0342C18.4914 13.0342 18.4828 13.0345 18.4742 13.0345V29.1566C18.4828 29.1566 18.4914 29.1569 18.5 29.1569C22.9522 29.1569 26.5613 25.5478 26.5613 21.0956C26.5613 16.6433 22.9522 13.0342 18.5 13.0342Z" fill="#E9EDF5"/>
<path d="M13.4142 15.9953C13.4142 18.5022 11.3819 20.5344 8.87507 20.5344C6.36818 20.5344 4.336 18.5021 4.336 15.9953C4.336 13.4884 8.87507 7.65601 8.87507 7.65601C8.87507 7.65601 13.4142 13.4885 13.4142 15.9953Z" fill="#96E8FF"/>
<path d="M13.4141 15.9955C13.4141 18.5024 11.3819 20.5346 8.87506 20.5346V7.65625C8.87499 7.65625 13.4141 13.4887 13.4141 15.9955Z" fill="#19CFFC"/>
<path d="M13.9598 4.33594H23.0402V8.05502H13.9598V4.33594Z" fill="#636978"/>
<path d="M18.4742 4.33594H23.0401V8.05502H18.4742V4.33594Z" fill="#414952"/>
<path d="M17.9859 19.8167L22.4083 15.3943L24.1965 17.1825L19.7741 21.6049L17.9859 19.8167Z" fill="#FFCE00"/>
<path d="M18.5 23.1038C19.6091 23.1038 20.5082 22.2047 20.5082 21.0956C20.5082 19.9865 19.6091 19.0874 18.5 19.0874C17.3909 19.0874 16.4918 19.9865 16.4918 21.0956C16.4918 22.2047 17.3909 23.1038 18.5 23.1038Z" fill="#636978"/>
<path d="M18.5 19.0874C18.4914 19.0874 18.4828 19.0879 18.4742 19.0881V23.1032C18.4828 23.1033 18.4914 23.1039 18.5 23.1039C19.609 23.1039 20.5082 22.2048 20.5082 21.0957C20.5082 19.9865 19.609 19.0874 18.5 19.0874Z" fill="#414952"/>
</g>
<defs>
<clipPath id="clip0_0_480">
<rect width="37" height="37" fill="white"/>
</clipPath>
</defs>
</svg>
