<svg width="1145" height="673" viewBox="0 0 1145 673" fill="none" xmlns="http://www.w3.org/2000/svg">
<rect x="75" width="1025" height="673" rx="22" fill="#E2F0FF"/>
<path d="M501.931 615.574L501.692 615.404L501.426 615.53C485.561 623.063 462.599 633.31 439.028 641.672C415.442 650.04 391.302 656.5 373.06 656.5C303.668 656.5 263.202 610.748 218.251 559.925C215.842 557.202 213.421 554.464 210.981 551.718L210.732 551.437L210.393 551.599C143.432 583.496 91.7533 571.47 61.9895 539.545C32.1953 507.588 24.2319 455.565 44.9869 407.214L45.1276 406.887L44.8634 406.647C0.421089 366.319 -8.78575 301.169 9.04439 248.378C26.8689 195.603 71.6537 155.321 135.107 164.533L135.422 164.579L135.596 164.313C169.056 113.415 196.066 82.6965 228.226 63.4569C260.379 44.2208 297.736 36.4259 351.97 31.5001C429.842 31.5055 541.336 59.6396 594.298 145.788L594.656 146.369L595.102 145.853C601.954 137.943 614.476 129.909 627.433 127.877C633.902 126.862 640.459 127.346 646.47 130.064C652.477 132.781 657.979 137.747 662.317 145.764L662.558 146.21L663.001 145.962C702.741 123.7 763.468 111.489 825.19 130.026C871.16 143.832 894.517 169.537 908.011 191.785C913.752 201.25 917.707 210.088 920.867 217.147C921.424 218.393 921.957 219.584 922.47 220.712C924.176 224.463 925.681 227.56 927.177 229.72C928.658 231.86 930.235 233.234 932.124 233.234L932.173 233.234L932.22 233.224C990.286 221.893 1039.14 232.168 1075.46 261.82C1111.79 291.479 1135.66 340.588 1143.62 407.077C1151.55 473.368 1105.12 535.704 1042.65 572.65C980.17 609.596 901.886 621.011 846.322 585.726C841.895 582.915 838.003 580.293 834.465 577.91L834.244 577.761C830.649 575.339 827.412 573.163 824.353 571.292C818.231 567.55 812.784 565.008 806.504 564.149L806.214 564.109L806.037 564.343C763.441 620.678 699.393 656.5 627.785 656.5C581.402 656.5 538.193 641.471 501.931 615.574Z" fill="white" stroke="#AAC7E5"/>
</svg>
