<svg width="551" height="207" viewBox="0 0 551 207" fill="none" xmlns="http://www.w3.org/2000/svg">
<mask id="path-1-inside-1_0_333" fill="white">
<path d="M309.599 13.5276C324.876 8.55607 353.831 6.4395e-06 371.475 7.52224e-06C406.786 9.68915e-06 426.59 16.8212 449.651 34.6117C514.235 13.5276 549.611 50.4498 529.572 82.4425C572.518 109.149 547.31 168.68 485.949 162.575C453.734 196.158 433.861 203.2 381.635 206.45C344.129 206.45 290.36 197.167 264.805 168.68C258.145 173.95 240.504 179.367 232.066 168.68C212.891 176.042 183.601 180.077 153.831 173.95C109.454 164.816 108.692 139.92 102.441 139.92C46.4485 147.408 8.09749 126.352 0.427418 82.4424C-7.24265 38.5331 90.1685 -5.40312e-06 143.86 23.3664C152.572 27.1581 156.975 29.9005 162.925 30.4581C183.463 11.8429 214.352 -2.11978e-06 248.896 0C271.27 1.37301e-06 292.111 4.96849 309.599 13.5276Z"/>
</mask>
<path d="M309.599 13.5276C324.876 8.55607 353.831 6.4395e-06 371.475 7.52224e-06C406.786 9.68915e-06 426.59 16.8212 449.651 34.6117C514.235 13.5276 549.611 50.4498 529.572 82.4425C572.518 109.149 547.31 168.68 485.949 162.575C453.734 196.158 433.861 203.2 381.635 206.45C344.129 206.45 290.36 197.167 264.805 168.68C258.145 173.95 240.504 179.367 232.066 168.68C212.891 176.042 183.601 180.077 153.831 173.95C109.454 164.816 108.692 139.92 102.441 139.92C46.4485 147.408 8.09749 126.352 0.427418 82.4424C-7.24265 38.5331 90.1685 -5.40312e-06 143.86 23.3664C152.572 27.1581 156.975 29.9005 162.925 30.4581C183.463 11.8429 214.352 -2.11978e-06 248.896 0C271.27 1.37301e-06 292.111 4.96849 309.599 13.5276Z" fill="white"/>
<path d="M309.599 13.5276L309.16 14.4258L309.524 14.6039L309.909 14.4785L309.599 13.5276ZM449.651 34.6117L449.04 35.4035L449.459 35.7264L449.961 35.5623L449.651 34.6117ZM529.572 82.4425L528.725 81.9117L528.192 82.7619L529.044 83.2917L529.572 82.4425ZM485.949 162.575L486.048 161.58L485.564 161.532L485.227 161.883L485.949 162.575ZM381.635 206.45V207.45H381.666L381.697 207.448L381.635 206.45ZM264.805 168.68L265.55 168.013L264.922 167.313L264.185 167.896L264.805 168.68ZM232.066 168.68L232.851 168.061L232.395 167.483L231.708 167.747L232.066 168.68ZM153.831 173.95L153.629 174.93L153.831 173.95ZM102.441 139.92V138.92H102.374L102.308 138.929L102.441 139.92ZM143.86 23.3664L143.461 24.2833L143.86 23.3664ZM162.925 30.4581L162.831 31.4538L163.27 31.4949L163.596 31.1991L162.925 30.4581ZM371.475 -0.999992C362.527 -0.999993 350.781 1.16386 339.413 3.92779C328.026 6.69642 316.942 10.0866 309.29 12.5767L309.909 14.4785C317.534 11.9971 328.565 8.62346 339.886 5.87117C351.225 3.11418 362.778 1.00001 371.475 1.00001V-0.999992ZM450.262 33.8199C427.237 16.0573 407.175 -0.99999 371.475 -0.999992V1.00001C406.397 1.00001 425.943 17.585 449.04 35.4035L450.262 33.8199ZM449.961 35.5623C482.064 25.082 506.686 29.0891 520.753 39.4291C527.782 44.5958 532.186 51.3434 533.64 58.7009C535.093 66.0554 533.615 74.105 528.725 81.9117L530.42 82.9733C535.55 74.7837 537.164 66.2207 535.602 58.3132C534.04 50.4087 529.321 43.2449 521.938 37.8176C507.18 26.9693 481.821 23.0574 449.341 33.6611L449.961 35.5623ZM529.044 83.2917C550.092 96.3808 554.349 117.387 545.979 134.371C537.59 151.392 516.389 164.599 486.048 161.58L485.85 163.57C516.871 166.657 538.953 153.15 547.773 135.255C556.61 117.324 551.998 95.2109 530.101 81.5933L529.044 83.2917ZM381.697 207.448C407.827 205.822 425.991 203.243 441.675 196.813C457.382 190.373 470.517 180.107 486.671 163.267L485.227 161.883C469.166 178.627 456.257 188.673 440.917 194.962C425.554 201.261 407.669 203.828 381.573 205.452L381.697 207.448ZM264.061 169.348C277.022 183.796 297.064 193.307 318.472 199.212C339.899 205.122 362.81 207.45 381.635 207.45V205.45C362.954 205.45 340.227 203.137 319.004 197.284C297.762 191.425 278.143 182.051 265.55 168.013L264.061 169.348ZM231.282 169.3C235.797 175.019 242.73 176.355 249.209 175.658C255.68 174.962 261.937 172.225 265.426 169.465L264.185 167.896C261.013 170.406 255.119 173.011 248.995 173.67C242.88 174.327 236.773 173.028 232.851 168.061L231.282 169.3ZM153.629 174.93C183.592 181.097 213.077 177.042 232.425 169.614L231.708 167.747C212.705 175.042 183.609 179.058 154.032 172.971L153.629 174.93ZM102.441 140.92C102.85 140.92 103.307 141.111 103.92 141.718C104.544 142.335 105.209 143.262 106.034 144.506C107.658 146.953 109.773 150.424 113.09 154.173C119.762 161.712 131.244 170.322 153.629 174.93L154.032 172.971C132.041 168.444 120.953 160.04 114.588 152.847C111.386 149.23 109.364 145.906 107.7 143.4C106.882 142.167 106.115 141.077 105.327 140.297C104.529 139.506 103.594 138.92 102.441 138.92V140.92ZM-0.557666 82.6145C3.32599 104.848 15.0013 121.356 32.825 131.328C50.6167 141.283 74.4389 144.674 102.573 140.911L102.308 138.929C74.4502 142.654 51.1008 139.262 33.8015 129.583C16.5341 119.922 5.19891 103.947 1.4125 82.2704L-0.557666 82.6145ZM144.259 22.4495C117.078 10.6202 79.0044 14.4907 48.7575 26.7492C33.617 32.8854 20.3454 41.1582 11.3253 50.7153C2.30506 60.2727 -2.54845 71.2178 -0.557666 82.6145L1.4125 82.2704C-0.431749 71.7125 4.01486 61.3749 12.7798 52.088C21.545 42.8009 34.5437 34.6678 49.5087 28.6028C79.4725 16.459 116.951 12.7462 143.461 24.2833L144.259 22.4495ZM163.018 29.4625C160.183 29.1968 157.7 28.4116 154.815 27.2027C153.368 26.5963 151.831 25.8884 150.097 25.0878C148.367 24.2892 146.448 23.4024 144.259 22.4495L143.461 24.2833C145.627 25.2263 147.526 26.1042 149.258 26.9036C150.986 27.7011 152.556 28.4246 154.042 29.0473C157.024 30.2971 159.717 31.1619 162.831 31.4538L163.018 29.4625ZM248.896 -1C214.135 -1 182.997 10.9157 162.253 29.7172L163.596 31.1991C183.929 12.77 214.57 0.999998 248.896 1V-1ZM310.039 12.6294C292.408 4.00061 271.416 -0.999999 248.896 -1V1C271.124 1 291.814 5.93636 309.16 14.4258L310.039 12.6294Z" fill="#6F9FD3" mask="url(#path-1-inside-1_0_333)"/>
</svg>
