<svg width="177" height="42" viewBox="0 0 177 42" fill="none" xmlns="http://www.w3.org/2000/svg">
<path d="M130.472 41.5559C128.535 41.5559 126.712 40.7495 125.47 39.3434C125.194 39.0302 124.762 38.5228 124.184 37.8307C123.035 38.0204 121.873 38.1164 120.721 38.1164C120.659 38.1164 120.598 38.1162 120.537 38.1156C117.898 38.0924 114.808 37.891 111.739 36.6102C111.414 36.6573 111.085 36.6811 110.758 36.6811C108.846 36.6813 107.059 35.8851 105.728 34.4394C104.931 33.5746 104.363 32.5575 104.067 31.471C103.079 30.6598 102.348 29.5899 101.939 28.3468C101.512 27.0511 101.444 25.7166 101.738 24.4629C101.307 22.5284 100.959 19.4729 101.514 15.4045C101.765 13.5646 102.315 11.758 103.151 10.0287C103.042 8.18081 103.703 6.35767 105 4.96821C105.652 4.26891 106.4 3.72237 107.229 3.3386C107.836 2.32742 108.703 1.49274 109.763 0.905472C110.848 0.304466 112.004 -0.000114441 113.199 -0.000114441C114.217 -0.000114441 115.231 0.232086 116.162 0.674892C117.623 0.426403 118.999 0.300587 120.26 0.300587C120.838 0.300587 121.4 0.327625 121.93 0.380917C123.887 0.577438 125.367 0.836281 126.728 1.2203C127.368 1.40083 127.995 1.61556 128.597 1.86037C128.991 1.79192 129.388 1.75732 129.783 1.75732C131.642 1.75732 133.387 2.51074 134.695 3.87886C135.26 4.46931 135.713 5.12484 136.048 5.83311C136.912 6.34727 137.669 7.06231 138.258 7.92481C139.044 9.07521 139.484 10.3762 139.531 11.6877C139.574 12.8666 139.299 14.0365 138.733 15.0971C139.003 16.9423 139.068 19.0385 138.926 21.3368C138.817 23.0911 138.524 24.7469 138.053 26.2711C138.697 27.0685 139.166 27.6734 139.451 28.074C140.373 29.3696 140.786 30.994 140.613 32.6482C140.433 34.3667 139.635 35.9355 138.365 37.0657C137.787 37.5819 137.143 37.9958 136.446 38.3001C136.011 38.9807 135.455 39.5792 134.788 40.0842C133.513 41.0471 132.021 41.5559 130.472 41.5559Z" fill="#0856A1"/>
<path d="M7.49203 37.7463C3.36094 37.7463 0 34.3854 0 30.2543V8.21665C0 4.08556 3.36094 0.724621 7.49203 0.724621H15.9144C18.2961 0.724621 20.0993 0.833996 21.4272 1.05893C23.2249 1.36395 24.8753 2.02203 26.3328 3.01495C27.8084 4.02074 29.0364 5.34655 29.9831 6.9559C31.0203 8.71917 31.5462 10.6875 31.5462 12.8062C31.5462 14.4839 31.2079 16.0841 30.5393 17.5754C32.0514 19.6295 32.8179 22.017 32.8179 24.6757C32.8179 26.7069 32.3492 28.6892 31.4249 30.5677C30.4623 32.5239 29.1033 34.127 27.3857 35.3325C25.6667 36.539 23.6165 37.2805 21.292 37.5363L21.2827 37.5373C20.5443 37.6173 19.097 37.7132 14.4169 37.7462L14.3981 37.7463H7.49203Z" fill="#0856A1"/>
<path d="M50.7396 37.7463C49.3975 37.7463 48.1033 37.3446 46.997 36.5847C45.8906 35.8247 45.0514 34.7607 44.5698 33.5079L43.9382 31.8645H41.3077L40.752 33.3939C39.8061 35.9972 37.3096 37.7463 34.5397 37.7463H31.2561C29.0721 37.7463 27.0323 36.6699 25.7997 34.8671C24.5671 33.0641 24.3044 30.7728 25.097 28.7377L33.8295 6.31784C34.4739 4.66316 35.5894 3.25878 37.0554 2.25658C38.5212 1.25438 40.2347 0.724621 42.0104 0.724621H43.164C44.925 0.724621 46.6265 1.24633 48.0849 2.23332C49.5432 3.22026 50.6599 4.60599 51.3145 6.24071L60.2993 28.6796C61.1158 30.7188 60.8682 33.0222 59.6371 34.8413C58.406 36.6603 56.3597 37.7463 54.1632 37.7463H50.7396Z" fill="#0856A1"/>
<path d="M100.914 37.7463C99.5722 37.7463 98.278 37.3446 97.1717 36.5846C96.0655 35.8247 95.2263 34.7609 94.7447 33.5081L94.113 31.8645H91.4825L90.9268 33.3939C89.9808 35.9972 87.4843 37.7463 84.7144 37.7463H81.4308C79.2469 37.7463 77.2071 36.6699 75.9744 34.8671C74.7418 33.0641 74.4791 30.7728 75.2718 28.7377L84.0042 6.31784C84.6487 4.66321 85.7641 3.25883 87.2301 2.25658C88.696 1.25438 90.4095 0.724621 92.1852 0.724621H93.3387C95.0997 0.724621 96.8012 1.24633 98.2596 2.23332C99.7179 3.22026 100.835 4.60599 101.489 6.24075L110.474 28.6796C111.29 30.7188 111.043 33.0222 109.812 34.8413C108.581 36.6603 106.534 37.7463 104.338 37.7463H100.914Z" fill="#0856A1"/>
<path d="M157.874 37.7463C156.532 37.7463 155.238 37.3446 154.132 36.5846C153.025 35.8247 152.186 34.7609 151.705 33.5081L151.073 31.8645H148.442L147.887 33.3939C146.941 35.9972 144.444 37.7463 141.674 37.7463H138.391C136.207 37.7463 134.167 36.67 132.934 34.8671C131.702 33.0642 131.439 30.7729 132.232 28.7379L140.964 6.31784C141.609 4.66311 142.724 3.25873 144.19 2.25658C145.656 1.25438 147.369 0.724621 149.145 0.724621H150.299C152.06 0.724621 153.761 1.24633 155.22 2.23332C156.678 3.22026 157.795 4.60599 158.449 6.24075L167.434 28.6796C168.25 30.7188 168.003 33.0222 166.772 34.8412C165.541 36.6603 163.494 37.7463 161.298 37.7463H157.874Z" fill="#0856A1"/>
<path d="M61.5194 37.7463C57.5586 37.7463 54.3362 34.5239 54.3362 30.5631V8.11983C54.3362 4.15896 57.5586 0.936596 61.5194 0.936596H63.5089C67.4697 0.936596 70.6921 4.15896 70.6921 8.11983V22.2559H76.5089C80.4697 22.2559 83.6921 25.4782 83.6921 29.4391V30.5631C83.6921 34.5239 80.4697 37.7463 76.5089 37.7463H61.5194Z" fill="#0856A1"/>
<path d="M166.949 37.7463C163.472 37.7463 160.644 34.9181 160.644 31.4418V7.02916C160.644 3.55286 163.472 0.724621 166.949 0.724621H168.976C173.4 0.724621 177 4.32423 177 8.74871V31.4418C177 34.9181 174.172 37.7463 170.695 37.7463H166.949Z" fill="#0856A1"/>
<path d="M166.208 31.442V7.02932C166.208 6.62027 166.539 6.28861 166.949 6.28861H168.976C170.335 6.28861 171.436 7.39013 171.436 8.74887V31.442C171.436 31.851 171.104 32.1826 170.695 32.1826H166.949C166.539 32.1826 166.208 31.851 166.208 31.442Z" fill="white"/>
<path d="M124.155 28.9756L120.016 23.9292L114.897 28.1769C114.897 28.1769 116.76 29.5896 119.526 29.7675C122.455 29.9557 124.155 28.9756 124.155 28.9756ZM111.82 13.9395C111.82 13.9395 110.648 16.0471 110.583 18.0968C110.519 20.1466 110.957 22.2586 110.957 22.2586L115.554 18.4982L111.82 13.9395ZM116.982 9.2937L120.867 14.1492L125.631 10.2877C125.631 10.2877 123.748 8.98967 121.307 8.78617C118.948 8.58955 116.982 9.2937 116.982 9.2937ZM125.312 19.5623L129.032 24.0026C129.236 23.7989 129.837 21.9966 129.989 20.0647C130.135 18.2057 129.563 16.1037 129.563 16.1037L125.312 19.5623ZM112.037 25.0554C112.229 25.5785 112.805 26.2673 112.805 26.2673L118.236 21.7598L117.347 20.731L112.037 25.0554ZM122.695 16.3366L123.584 17.4146L128.469 13.4212C128.254 12.8965 127.68 12.2396 127.68 12.2396L122.695 16.3366ZM123.184 21.3362L122.14 22.2096L126.566 27.5607C126.832 27.3809 127.457 26.5419 127.457 26.5419L123.184 21.3362ZM119.504 18.9417L120.381 20.0335L121.395 19.1822L120.531 18.0968L119.504 18.9417ZM118.715 15.9214L114.403 10.639L113.418 11.51L117.687 16.7497L118.715 15.9214ZM134.665 32.9103C133.916 33.5787 133.1 33.3088 132.793 32.982C131.966 32.0997 129.738 29.3425 129.738 29.3425L128.712 30.2385C128.712 30.2385 130.878 32.7695 131.623 33.8147C131.865 34.1547 132.233 35.0404 131.431 35.647C130.695 36.2034 129.936 35.9963 129.64 35.6607C128.756 34.6592 126.208 31.5442 126.208 31.5442C126.208 31.5442 123.869 32.5811 120.585 32.5521C118.071 32.53 114.799 32.3568 112.069 30.4961C112.069 30.4961 110.833 31.7695 109.82 30.6703C108.808 29.5716 109.913 28.6187 109.913 28.6187C109.913 28.6187 109.161 27.7801 109.045 27.4621C109.045 27.4621 107.601 27.7541 107.223 26.6058C106.836 25.4326 107.713 24.9669 107.713 24.9669C107.713 24.9669 106.229 22.0001 107.026 16.1569C107.466 12.9315 109.171 10.7342 109.171 10.7342C109.171 10.7342 108.192 9.70226 109.068 8.76404C110.086 7.67273 111.127 8.74932 111.127 8.74932C111.127 8.74932 111.41 8.32879 112.129 7.92642C112.129 7.92642 111.285 6.42292 112.46 5.77176C113.879 4.98616 114.733 6.68005 114.733 6.68005C114.733 6.68005 118.418 5.62014 121.374 5.91701C124.33 6.21389 126.335 6.68692 128.37 7.98285C128.37 7.98285 129.681 6.68594 130.673 7.72376C131.797 8.89899 130.549 9.91179 130.549 9.91179C130.549 9.91179 131.086 10.5276 131.394 11.0183C131.394 11.0183 132.765 9.74838 133.664 11.0639C134.603 12.4379 133.107 13.2225 132.639 13.5763C132.639 13.5763 133.697 15.7305 133.372 20.9942C133.112 25.2024 131.562 27.1525 131.562 27.1525C131.562 27.1525 134.157 30.2311 134.919 31.3013C135.173 31.6586 135.175 32.4564 134.665 32.9103Z" fill="white"/>
<path d="M152.859 20.9728L150.639 14.9963C150.301 14.0841 149.009 14.0883 148.676 15.0027L146.502 20.9772C146.332 21.4442 146.677 21.9381 147.174 21.9381H152.187C152.686 21.9381 153.032 21.4405 152.859 20.9728ZM161.298 32.1826H157.874C157.442 32.1826 157.053 31.916 156.898 31.512L155.153 26.9714C154.997 26.5675 154.609 26.3008 154.177 26.3008H145.277C144.837 26.3008 144.444 26.5761 144.294 26.9895L142.658 31.4939C142.507 31.9073 142.114 32.1826 141.674 32.1826H138.391C137.655 32.1826 137.149 31.4428 137.416 30.7571L146.149 8.33727C146.63 7.10204 147.82 6.28861 149.145 6.28861H150.299C151.613 6.28861 152.796 7.08869 153.284 8.30901L162.269 30.7479C162.544 31.435 162.038 32.1826 161.298 32.1826Z" fill="white"/>
<path d="M10.6941 21.6366V27.0792C10.6941 27.4883 11.0257 27.8199 11.4348 27.8199H15.5338C17.4177 27.8199 18.6129 27.7669 19.1193 27.6609C19.8966 27.5196 20.5294 27.1751 21.0182 26.6276C21.5066 26.08 21.7512 25.347 21.7512 24.4286C21.7512 23.6514 21.5627 22.992 21.1859 22.4503C20.809 21.9088 20.2644 21.5141 19.5521 21.2669C18.8395 21.0196 17.294 20.896 14.9156 20.896H11.4348C11.0257 20.896 10.6941 21.2276 10.6941 21.6366ZM10.6941 11.3391V15.8455C10.6941 16.2545 11.0257 16.5862 11.4348 16.5862H14.1207C16.1578 16.5862 17.4237 16.5569 17.9183 16.4978C18.813 16.3918 19.5168 16.0828 20.029 15.5705C20.5412 15.0583 20.7973 14.3843 20.7973 13.5481C20.7973 12.7475 20.5766 12.097 20.135 11.5963C19.6934 11.096 19.0369 10.7927 18.1656 10.6867C17.6472 10.6279 16.1578 10.5984 13.6968 10.5984H11.4348C11.0257 10.5984 10.6941 10.93 10.6941 11.3391ZM5.46586 8.21681C5.46586 7.1519 6.32914 6.28861 7.39406 6.28861H15.8164C17.8653 6.28861 19.3932 6.37419 20.3999 6.5447C21.4067 6.71556 22.3076 7.07186 23.1024 7.61335C23.8972 8.15508 24.5596 8.87626 25.0895 9.77708C25.6194 10.6779 25.8843 11.6877 25.8843 12.8063C25.8843 14.0192 25.5576 15.132 24.904 16.1446C24.5119 16.7523 24.036 17.2688 23.4765 17.6941C23.0409 18.0252 23.1162 18.7035 23.6078 18.9436C24.5404 19.399 25.2993 20.0086 25.8843 20.7723C26.7321 21.8793 27.1561 23.1806 27.1561 24.6758C27.1561 25.8534 26.8823 26.9985 26.3347 28.1113C25.7872 29.224 25.0392 30.1133 24.0915 30.7784C23.1435 31.4438 21.9747 31.8531 20.5854 32.006C19.7138 32.1004 17.6119 32.1592 14.2797 32.1826H7.39406C6.32914 32.1826 5.46586 31.3193 5.46586 30.2544V8.21681Z" fill="white"/>
<path d="M45.7239 20.9728L43.5047 14.9963C43.1659 14.0841 41.8742 14.0883 41.5414 15.0027L39.3668 20.9772C39.1969 21.4442 39.5427 21.9381 40.0396 21.9381H45.0527C45.5516 21.9381 45.8976 21.4405 45.7239 20.9728ZM54.1632 32.1826H50.7397C50.3068 32.1826 49.9187 31.916 49.7634 31.512L48.0181 26.9714C47.8628 26.5675 47.4747 26.3008 47.0418 26.3008H38.1426C37.7026 26.3008 37.3097 26.5761 37.1595 26.9895L35.5228 31.4939C35.3726 31.9073 34.9797 32.1826 34.5397 32.1826H31.2561C30.5203 32.1826 30.0145 31.4428 30.2816 30.7571L39.014 8.33727C39.4951 7.10204 40.6849 6.28861 42.0105 6.28861H43.1641C44.4786 6.28861 45.6608 7.08869 46.1495 8.30901L55.1342 30.7479C55.4093 31.435 54.9033 32.1826 54.1632 32.1826Z" fill="white"/>
<path d="M59.9003 30.5632V8.11994C59.9003 7.2256 60.6254 6.50059 61.5197 6.50059H63.5092C64.4036 6.50059 65.1286 7.2256 65.1286 8.11994V26.2005C65.1286 27.0948 65.8536 27.8199 66.748 27.8199H76.5092C77.4035 27.8199 78.1286 28.5449 78.1286 29.4393V30.5632C78.1286 31.4576 77.4035 32.1826 76.5092 32.1826H61.5197C60.6254 32.1826 59.9003 31.4576 59.9003 30.5632Z" fill="white"/>
<path d="M95.8986 20.9728L93.6795 14.9963C93.3407 14.0841 92.0489 14.0883 91.7161 15.0027L89.5416 20.9772C89.3716 21.4442 89.7174 21.9381 90.2144 21.9381H95.2274C95.7264 21.9381 96.0723 21.4405 95.8986 20.9728ZM104.338 32.1826H100.914C100.482 32.1826 100.093 31.916 99.9381 31.512L98.1929 26.9714C98.0375 26.5675 97.6494 26.3008 97.2166 26.3008H88.3173C87.8774 26.3008 87.4845 26.5761 87.3342 26.9895L85.6975 31.4939C85.5473 31.9073 85.1544 32.1826 84.7145 32.1826H81.4309C80.695 32.1826 80.1892 31.4428 80.4563 30.7571L89.1887 8.33727C89.6699 7.10204 90.8597 6.28861 92.1853 6.28861H93.3388C94.6534 6.28861 95.8356 7.08869 96.3242 8.30901L105.309 30.7479C105.584 31.435 105.078 32.1826 104.338 32.1826Z" fill="white"/>
</svg>
