<svg width="1920" height="119" viewBox="0 0 1920 119" fill="none" xmlns="http://www.w3.org/2000/svg">
<path fill-rule="evenodd" clip-rule="evenodd" d="M726.361 53.0749C739.24 70.8132 769.961 80.3406 812.245 65.9882C813.489 66.9855 814.724 67.9801 815.952 68.9698L816.052 69.0501C839.449 87.9007 860.607 104.947 896.88 104.947C915.982 104.947 947.329 95.3166 963.868 89.7206C982.801 99.3548 1005.36 104.947 1029.59 104.947C1066.98 104.947 1100.43 91.617 1122.66 70.6635C1127.52 71.1374 1131.43 73.0137 1137.12 75.7418L1137.12 75.7436C1138.96 76.6278 1140.99 77.6015 1143.3 78.646C1172.24 91.7414 1212.92 87.5643 1245.44 73.9678C1291.37 101.083 1340.7 108.43 1376.21 110.494C1442.26 114.333 1492.53 107.081 1553.55 72.2268C1553.55 72.2268 1577.87 86.6036 1601.39 72.2268C1629.41 81.8129 1674.91 89.5898 1715.71 79.0888C1759.76 67.7495 1774.45 50.6223 1782.42 41.3314C1785.86 37.3252 1788.04 34.776 1790.8 34.776C1850.24 41.8614 1896.08 29.3217 1921 0.000617981L1295.72 0.000563317C1295.72 0.0004031 1295.72 0.000250512 1295.72 9.02948e-05L712.172 3.92793e-05C712.172 0.000275791 712.172 0.000512302 712.172 0.000748813L-1.99938 0.000686378C22.9198 29.3216 68.7579 41.8612 128.205 34.7758C130.831 34.7758 132.795 37.4548 135.799 41.555C143.247 51.7183 157.093 70.6141 203.295 79.0886C246.794 87.0673 289.593 81.8127 317.611 72.2266C341.128 86.6034 365.448 72.2266 365.448 72.2266C415.216 109.214 471.978 119.629 528.618 118.173C564.653 117.246 641.506 108.008 688.577 64.2765C702.452 61.3012 715.121 57.5015 726.361 53.0749Z" fill="white"/>
</svg>
